# File created by Blade
# Date/Time:  Tue Jan 27 19:14:14 2015
#---------------------------------------------------------
:version 1.10
:name HOM
:units
  mass 1.0
  length 1.000000
  angle deg
:documentation
     Acclaim Skeleton File
:root
   axis xyz
   order TX TY TZ RX RY RZ
   position 0.000000 0.000000 0.000000
   orientation 0 0 0
:bonedata
   begin
      id 1
      name Spine_dum
      direction 0.000000 1.000000 0.000000
      length 6.116652
      axis 0.0 0.0 0.0 xyz
   end
   begin
      id 2
      name LeftUpLeg_dum
      direction 1.000000 0.000000 0.000000
      length 4.711765
      axis 0.0 0.0 0.0 xyz
   end
   begin
      id 3
      name RightUpLeg_dum
      direction -1.000000 0.000000 0.000000
      length 4.711765
      axis 0.0 0.0 0.0 xyz
   end
   begin
      id 4
      name Spine
      direction 0.000000 1.000000 0.000000
      length 0.000000
      axis 0.0 0.0 0.0 xyz
      dof rx ry rz
   end
   begin
      id 5
      name Spine_dum1
      direction 0.000000 1.000000 0.000000
      length 15.225563
      axis 0.0 0.0 0.0 xyz
   end
   begin
      id 6
      name Spine_dum2
      direction 0.000000 1.000000 0.000000
      length 8.977654
      axis 0.0 0.0 0.0 xyz
   end
   begin
      id 7
      name Spine_dum3
      direction 0.000000 1.000000 0.000000
      length 8.977654
      axis 0.0 0.0 0.0 xyz
   end
   begin
      id 8
      name Head
      direction 0.000000 1.000000 0.000000
      length 4.527550
      axis 0.0 0.0 0.0 xyz
      dof rx ry rz
   end
   begin
      id 9
      name LeftShoulder
      direction 1.000000 0.000000 0.000000
      length 7.110130
      axis 0.0 0.0 -90.0 xyz
      dof rx ry rz
   end
   begin
      id 10
      name LeftArm
      direction 1.000000 0.000000 0.000000
      length 10.398341
      axis 0.0 0.0 -90.0 xyz
      dof rx ry rz
   end
   begin
      id 11
      name LeftForeArm
      direction 1.000000 0.000000 0.000000
      length 8.888997
      axis 0.0 0.0 -90.0 xyz
      dof ry rz rx
   end
   begin
      id 12
      name LeftHand
      direction 0.000000 0.000000 0.000000
      length 0.000000
      axis 0.0 0.0 -90.0 xyz
      dof rx ry rz
   end
   begin
      id 13
      name LeftHand_dum1
      direction 0.000000 0.000000 0.000000
      length 0.000000
      axis 0.0 0.0 -90.0 xyz
   end
   begin
      id 14
      name LeftHand_dum2
      direction 1.000000 0.000000 0.000000
      length 3.937000
      axis 0.0 0.0 -90.0 xyz
   end
   begin
      id 15
      name LeftHandThumb1
      direction 0.000000 0.000000 1.000000
      length 3.937000
      axis 0.0 0.0 -90.0 xyz
      dof rx rz ry
   end
   begin
      id 16
      name RightShoulder
      direction -1.000000 0.000000 0.000000
      length 7.110130
      axis 0.0 0.0 90.0 xyz
      dof rx ry rz
   end
   begin
      id 17
      name RightArm
      direction -1.000000 0.000000 0.000000
      length 10.398341
      axis 0.0 0.0 90.0 xyz
      dof rx ry rz
   end
   begin
      id 18
      name RightForeArm
      direction -1.000000 0.000000 0.000000
      length 8.888997
      axis 0.0 0.0 90.0 xyz
      dof ry rz rx
   end
   begin
      id 19
      name RightHand
      direction 0.000000 0.000000 0.000000
      length 0.000000
      axis 0.0 0.0 90.0 xyz
      dof rx ry rz
   end
   begin
      id 20
      name RightHand_dum1
      direction 0.000000 0.000000 0.000000
      length 0.000000
      axis 0.0 0.0 90.0 xyz
   end
   begin
      id 21
      name RightHand_dum2
      direction -1.000000 0.000000 0.000000
      length 3.937000
      axis 0.0 0.0 90.0 xyz
   end
   begin
      id 22
      name RightHandThumb1
      direction 0.000000 0.000000 1.000000
      length 3.937000
      axis 0.0 0.0 90.0 xyz
      dof rx rz ry
   end
   begin
      id 23
      name LeftUpLeg
      direction 0.000000 -1.000000 0.000000
      length 15.510451
      axis 0.0 0.0 0.0 xyz
      dof rx ry rz
   end
   begin
      id 24
      name LeftLeg
      direction 0.000000 -1.000000 0.000000
      length 14.858061
      axis 0.0 0.0 0.0 xyz
      dof rx ry rz
   end
   begin
      id 25
      name LeftFoot
      direction 0.000000 -0.258819 0.965926
      length 5.128852
      axis 15.0 0.0 0.0 xyz
      dof rx ry rz
   end
   begin
      id 26
      name LeftToeBase
      direction 0.000000 0.000000 1.000000
      length 2.952750
      axis 0.0 0.0 0.0 xyz
      dof rx ry rz
   end
   begin
      id 27
      name RightUpLeg
      direction 0.000000 -1.000000 0.000000
      length 15.510451
      axis 0.0 0.0 0.0 xyz
      dof rx ry rz
   end
   begin
      id 28
      name RightLeg
      direction 0.000000 -1.000000 0.000000
      length 14.858061
      axis 0.0 0.0 0.0 xyz
      dof rx ry rz
   end
   begin
      id 29
      name RightFoot
      direction 0.000000 -0.258819 0.965926
      length 5.128852
      axis 15.0 0.0 0.0 xyz
      dof rx ry rz
   end
   begin
      id 30
      name RightToeBase
      direction 0.000000 0.000000 1.000000
      length 2.952750
      axis 0.0 0.0 0.0 xyz
      dof rx ry rz
   end
:hierarchy
   begin
      root Spine_dum LeftUpLeg_dum RightUpLeg_dum
      Spine_dum Spine
      LeftUpLeg_dum LeftUpLeg
      RightUpLeg_dum RightUpLeg
      Spine Spine_dum1 Spine_dum2 Spine_dum3
      Spine_dum1 Head
      Spine_dum2 LeftShoulder
      Spine_dum3 RightShoulder
      LeftShoulder LeftArm
      LeftArm LeftForeArm
      LeftForeArm LeftHand
      LeftHand LeftHand_dum1 LeftHand_dum2
      LeftHand_dum1 LeftHandThumb1
      RightShoulder RightArm
      RightArm RightForeArm
      RightForeArm RightHand
      RightHand RightHand_dum1 RightHand_dum2
      RightHand_dum1 RightHandThumb1
      LeftUpLeg LeftLeg
      LeftLeg LeftFoot
      LeftFoot LeftToeBase
      RightUpLeg RightLeg
      RightLeg RightFoot
      RightFoot RightToeBase
   end

# File created by Blade
# Date/Time:  Tue Jan 27 19:14:06 2015
# Frame Rate: 120.000 fps
#------------------------------------------------------
:FULLY-SPECIFIED
:DEGREES
423
root 4.131903 32.421817 1.272968 -2.914160 11.786460 1.382923
Spine -1.221049 10.288192 -3.377551
Head 13.095340 -23.267632 -0.328073
LeftShoulder -9.009158 -7.786851 25.583941
LeftArm -7.004754 35.808020 -104.770227
LeftForeArm 5.137643 0.000000 12.918623
LeftHand 9.690080 0.000000 -6.404920
LeftHandThumb1 -26.253704 0.000000 33.147579
RightShoulder -18.913285 17.102632 -63.274273
RightArm 106.425998 63.473455 113.175624
RightForeArm 29.554324 0.000000 149.794986
RightHand 29.009205 -0.000000 -17.611201
RightHandThumb1 -24.326973 -0.000000 -32.862282
LeftUpLeg 8.679947 -8.870185 -1.765698
LeftLeg 2.440211 -0.000000 -0.000000
LeftFoot -14.466056 8.688141 -20.989640
LeftToeBase 17.190781 -0.000000 -0.000000
RightUpLeg 11.553769 -4.377489 2.871873
RightLeg -1.478008 -0.000000 0.000000
RightFoot -14.472736 -19.043337 16.653599
RightToeBase 11.774214 -0.000000 -0.000000
424
root 4.131859 32.421755 1.272943 -2.921554 11.825426 1.386433
Spine -1.218780 10.295002 -3.386025
Head 13.085066 -23.308666 -0.338640
LeftShoulder -8.993163 -7.782389 25.580343
LeftArm -6.981077 35.811599 -104.754352
LeftForeArm 5.144056 -0.000000 12.911822
LeftHand 9.700361 0.000000 -6.366455
LeftHandThumb1 -26.253704 0.000000 33.147579
RightShoulder -18.912106 17.125017 -63.276854
RightArm 106.285787 63.471058 113.032635
RightForeArm 29.450231 -0.000000 149.787200
RightHand 28.957616 -0.000000 -17.611862
RightHandThumb1 -24.326973 -0.000000 -32.862282
LeftUpLeg 8.676853 -8.892539 -1.770272
LeftLeg 2.453601 -0.000000 -0.000000
LeftFoot -14.467869 8.687870 -20.951905
LeftToeBase 17.259173 -0.000000 -0.000000
RightUpLeg 11.567729 -4.392436 2.868311
RightLeg -1.483180 -0.000000 0.000000
RightFoot -14.480358 -19.066788 16.648070
RightToeBase 11.771596 -0.000000 -0.000000
425
root 4.130787 32.421785 1.272217 -2.925461 11.859067 1.388528
Spine -1.213520 10.293114 -3.392694
Head 13.066430 -23.297272 -0.331845
LeftShoulder -8.991936 -7.795419 25.583772
LeftArm -6.983816 35.806755 -104.754475
LeftForeArm 5.145568 -0.000000 12.912051
LeftHand 9.685435 -0.000000 -6.348807
LeftHandThumb1 -26.253704 0.000000 33.147579
RightShoulder -18.918727 17.126385 -63.281887
RightArm 106.180654 63.446871 112.925244
RightForeArm 29.414897 0.000000 149.783290
RightHand 28.984809 -0.000000 -17.553115
RightHandThumb1 -24.326973 -0.000000 -32.862282
LeftUpLeg 8.676900 -8.919191 -1.770773
LeftLeg 2.447711 -0.000000 -0.000000
LeftFoot -14.442739 8.692330 -20.929700
LeftToeBase 17.207701 -0.000000 -0.000000
RightUpLeg 11.577381 -4.394542 2.871920
RightLeg -1.493814 -0.000000 0.000000
RightFoot -14.486200 -19.106508 16.672149
RightToeBase 11.715371 -0.000000 -0.000000
426
root 4.129452 32.421894 1.272077 -2.930771 11.893983 1.387039
Spine -1.210956 10.300388 -3.398674
Head 13.053229 -23.306651 -0.341587
LeftShoulder -8.979699 -7.805661 25.587889
LeftArm -6.983856 35.813374 -104.755924
LeftForeArm 5.144035 -0.000000 12.910169
LeftHand 9.675056 -0.000000 -6.288309
LeftHandThumb1 -26.253704 0.000000 33.147579
RightShoulder -18.923241 17.144937 -63.287540
RightArm 106.044790 63.434436 112.773586
RightForeArm 29.382971 -0.000000 149.784049
RightHand 28.952869 0.000000 -17.523482
RightHandThumb1 -24.326973 -0.000000 -32.862282
LeftUpLeg 8.671125 -8.939790 -1.767342
LeftLeg 2.460917 -0.000000 -0.000000
LeftFoot -14.458975 8.689869 -20.916179
LeftToeBase 17.276755 -0.000000 -0.000000
RightUpLeg 11.584939 -4.423162 2.873455
RightLeg -1.488401 -0.000000 0.000000
RightFoot -14.503852 -19.094158 16.695037
RightToeBase 11.739767 -0.000000 -0.000000
427
root 4.127057 32.421394 1.270779 -2.930639 11.932129 1.379821
Spine -1.215209 10.304297 -3.405042
Head 13.044500 -23.264495 -0.335704
LeftShoulder -8.967652 -7.829021 25.609622
LeftArm -6.984951 35.819292 -104.773622
LeftForeArm 5.154276 -0.000000 12.877057
LeftHand 9.696664 -0.000000 -6.299525
LeftHandThumb1 -26.253704 0.000000 33.147579
RightShoulder -18.916028 17.145680 -63.280449
RightArm 105.958569 63.444704 112.670312
RightForeArm 29.382655 -0.000000 149.771477
RightHand 28.977161 -0.000000 -17.474075
RightHandThumb1 -24.326973 -0.000000 -32.862282
LeftUpLeg 8.668921 -8.941218 -1.751093
LeftLeg 2.443869 -0.000000 -0.000000
LeftFoot -14.439999 8.654894 -20.912443
LeftToeBase 17.214637 -0.000000 -0.000000
RightUpLeg 11.586060 -4.447995 2.886027
RightLeg -1.496041 -0.000000 0.000000
RightFoot -14.492950 -19.110358 16.692609
RightToeBase 11.699433 -0.000000 -0.000000
428
root 4.127343 32.421691 1.269846 -2.931131 11.956922 1.391746
Spine -1.216472 10.307765 -3.423839
Head 13.033519 -23.215327 -0.337028
LeftShoulder -8.966246 -7.834508 25.615390
LeftArm -6.982494 35.816785 -104.773845
LeftForeArm 5.127398 -0.000000 12.862697
LeftHand 9.712554 -0.000000 -6.297022
LeftHandThumb1 -26.253704 0.000000 33.147579
RightShoulder -18.907931 17.168787 -63.289376
RightArm 105.831754 63.462317 112.539706
RightForeArm 29.372892 0.000000 149.765379
RightHand 28.981399 -0.000000 -17.427996
RightHandThumb1 -24.326973 -0.000000 -32.862282
LeftUpLeg 8.654984 -8.956336 -1.762937
LeftLeg 2.461819 -0.000000 -0.000000
LeftFoot -14.410608 8.642609 -20.920951
LeftToeBase 17.119531 -0.000000 -0.000000
RightUpLeg 11.595198 -4.440417 2.875229
RightLeg -1.502157 -0.000000 0.000000
RightFoot -14.503995 -19.125301 16.690626
RightToeBase 11.745353 -0.000000 -0.000000
429
root 4.126481 32.422004 1.269444 -2.934547 11.974387 1.395779
Spine -1.216938 10.326820 -3.438364
Head 13.015914 -23.192338 -0.320942
LeftShoulder -8.962398 -7.827834 25.620102
LeftArm -6.962616 35.830126 -104.764860
LeftForeArm 5.043387 -0.000000 12.844872
LeftHand 9.761882 -0.000000 -6.707466
LeftHandThumb1 -26.253704 0.000000 33.147579
RightShoulder -18.898659 17.176161 -63.297526
RightArm 105.746115 63.500758 112.469416
RightForeArm 29.298341 -0.000000 149.750925
RightHand 28.988082 -0.000000 -17.378839
RightHandThumb1 -24.326973 -0.000000 -32.862282
LeftUpLeg 8.654346 -8.982973 -1.768168
LeftLeg 2.469537 -0.000000 -0.000000
LeftFoot -14.426077 8.655357 -20.914231
LeftToeBase 17.195418 -0.000000 -0.000000
RightUpLeg 11.595526 -4.468214 2.870972
RightLeg -1.494268 -0.000000 0.000000
RightFoot -14.515839 -19.126742 16.688463
RightToeBase 11.763098 -0.000000 -0.000000
